<svg width="25" height="25" viewBox="0 0 25 25" fill="none" xmlns="http://www.w3.org/2000/svg">
<g clip-path="url(#clip0_225_61490)">
<path fill-rule="evenodd" clip-rule="evenodd" d="M12.7838 1.12402C6.31516 1.12402 1.08594 6.3918 1.08594 12.9088C1.08594 18.1181 4.43648 22.5277 9.08458 24.0884C9.66571 24.2057 9.87857 23.8348 9.87857 23.5228C9.87857 23.2496 9.85942 22.3132 9.85942 21.3374C6.60537 22.04 5.92774 19.9326 5.92774 19.9326C5.4048 18.5668 4.62995 18.2158 4.62995 18.2158C3.5649 17.4939 4.70753 17.4939 4.70753 17.4939C5.88895 17.5719 6.50887 18.7036 6.50887 18.7036C7.55453 20.4984 9.2395 19.9913 9.91736 19.679C10.0141 18.9181 10.3242 18.3913 10.6534 18.0987C8.05808 17.8255 5.32746 16.811 5.32746 12.2843C5.32746 10.9966 5.79198 9.943 6.52803 9.12362C6.4119 8.83102 6.00508 7.62111 6.6444 6.00174C6.6444 6.00174 7.63211 5.68951 9.85918 7.21142C10.8127 6.95346 11.796 6.82223 12.7838 6.82112C13.7715 6.82112 14.7783 6.95785 15.7081 7.21142C17.9354 5.68951 18.9231 6.00174 18.9231 6.00174C19.5624 7.62111 19.1554 8.83102 19.0392 9.12362C19.7947 9.943 20.2401 10.9966 20.2401 12.2843C20.2401 16.811 17.5094 17.8059 14.8947 18.0987C15.3209 18.4694 15.6887 19.1717 15.6887 20.2839C15.6887 21.8642 15.6695 23.1326 15.6695 23.5226C15.6695 23.8348 15.8826 24.2057 16.4635 24.0887C21.1116 22.5275 24.4622 18.1181 24.4622 12.9088C24.4813 6.3918 19.2329 1.12402 12.7838 1.12402Z" fill="white"/>
</g>
<defs>
<clipPath id="clip0_225_61490">
<rect width="23.3763" height="23.3763" fill="white" transform="translate(0.774414 0.812012)"/>
</clipPath>
</defs>
</svg>
