<svg width="25" height="25" viewBox="0 0 25 25" fill="none" xmlns="http://www.w3.org/2000/svg">
<g clip-path="url(#clip0_225_61488)">
<path d="M22.5707 0.812012H2.65063C1.6964 0.812012 0.924805 1.56535 0.924805 2.49675V22.499C0.924805 23.4304 1.6964 24.1883 2.65063 24.1883H22.5707C23.5249 24.1883 24.3011 23.4304 24.3011 22.5036V2.49675C24.3011 1.56535 23.5249 0.812012 22.5707 0.812012ZM7.86007 20.7321H4.39016V9.57355H7.86007V20.7321ZM6.12512 8.05318C5.01109 8.05318 4.11165 7.15374 4.11165 6.04428C4.11165 4.93482 5.01109 4.03538 6.12512 4.03538C7.23458 4.03538 8.13402 4.93482 8.13402 6.04428C8.13402 7.14918 7.23458 8.05318 6.12512 8.05318ZM20.8449 20.7321H17.3795V15.3081C17.3795 14.016 17.3567 12.3495 15.5761 12.3495C13.7726 12.3495 13.4987 13.7603 13.4987 15.2167V20.7321H10.0379V9.57355H13.3617V11.0985H13.4074C13.8685 10.2219 15.0008 9.29505 16.6855 9.29505C20.1965 9.29505 20.8449 11.6053 20.8449 14.6095V20.7321Z" fill="white"/>
</g>
<defs>
<clipPath id="clip0_225_61488">
<rect width="23.3763" height="23.3763" fill="white" transform="translate(0.924805 0.812012)"/>
</clipPath>
</defs>
</svg>
