<svg width="25" height="25" viewBox="0 0 25 25" fill="none" xmlns="http://www.w3.org/2000/svg">
<g clip-path="url(#clip0_225_61491)">
<path d="M24.0754 12.3322C24.0754 15.4289 23.5564 17.9408 22.916 17.9408C22.2756 17.9408 21.7568 15.4296 21.7568 12.3322C21.7568 9.23487 22.2758 6.72363 22.916 6.72363C23.5561 6.72363 24.0754 9.23465 24.0754 12.3322Z" fill="white"/>
<path d="M21.1173 12.3325C21.1173 15.7896 19.6415 18.5932 17.8209 18.5932C16.0003 18.5932 14.5244 15.7896 14.5244 12.3325C14.5244 8.87541 16.0001 6.07178 17.8207 6.07178C19.6413 6.07178 21.1171 8.87451 21.1171 12.3325" fill="white"/>
<path d="M13.8848 12.3324C13.8848 16.0051 10.9331 18.9824 7.29215 18.9824C3.65119 18.9824 0.699219 16.0044 0.699219 12.3324C0.699219 8.66034 3.65096 5.68213 7.29215 5.68213C10.9333 5.68213 13.8848 8.65967 13.8848 12.3324Z" fill="white"/>
</g>
<defs>
<clipPath id="clip0_225_61491">
<rect width="23.3763" height="23.3763" fill="white" transform="translate(0.699219 0.812012)"/>
</clipPath>
</defs>
</svg>
