<svg width="24" height="25" viewBox="0 0 24 25" fill="none" xmlns="http://www.w3.org/2000/svg">
<g clip-path="url(#clip0_225_61487)">
<path fill-rule="evenodd" clip-rule="evenodd" d="M23.3763 12.5002C23.3763 18.9553 18.1433 24.1883 11.6881 24.1883C5.23296 24.1883 0 18.9553 0 12.5002C0 6.04497 5.23296 0.812012 11.6881 0.812012C18.1433 0.812012 23.3763 6.04497 23.3763 12.5002ZM12.107 9.44072C10.9701 9.91357 8.69806 10.8923 5.29073 12.3768C4.73743 12.5968 4.44759 12.8121 4.4212 13.0225C4.37661 13.3782 4.82206 13.5183 5.42863 13.709C5.51114 13.735 5.59663 13.7619 5.68427 13.7903C6.28105 13.9843 7.08382 14.2113 7.50115 14.2203C7.8797 14.2285 8.30221 14.0724 8.76868 13.7521C11.9523 11.6031 13.5956 10.5169 13.6988 10.4935C13.7716 10.4769 13.8725 10.4562 13.9408 10.5169C14.0091 10.5777 14.0024 10.6927 13.9952 10.7236C13.9511 10.9117 12.2025 12.5373 11.2977 13.3785C11.0156 13.6408 10.8155 13.8268 10.7746 13.8693C10.683 13.9644 10.5896 14.0545 10.4998 14.141C9.94541 14.6755 9.52965 15.0763 10.5228 15.7308C11.0001 16.0453 11.3821 16.3054 11.7631 16.5649C12.1792 16.8482 12.5943 17.1309 13.1313 17.4829C13.2681 17.5726 13.3987 17.6657 13.526 17.7564C14.0103 18.1017 14.4453 18.4119 14.9828 18.3624C15.2951 18.3337 15.6178 18.04 15.7816 17.1641C16.1688 15.0941 16.9299 10.6091 17.1058 8.7609C17.1212 8.59898 17.1018 8.39175 17.0863 8.30078C17.0707 8.20981 17.0382 8.0802 16.9199 7.98425C16.7799 7.87062 16.5637 7.84665 16.467 7.84836C16.0274 7.8561 15.3529 8.09063 12.107 9.44072Z" fill="white"/>
</g>
<defs>
<clipPath id="clip0_225_61487">
<rect width="23.3763" height="23.3763" fill="white" transform="translate(0 0.812012)"/>
</clipPath>
</defs>
</svg>
