<svg width="24" height="25" viewBox="0 0 24 25" fill="none" xmlns="http://www.w3.org/2000/svg">
<g clip-path="url(#clip0_225_61492)">
<path fill-rule="evenodd" clip-rule="evenodd" d="M22.7787 5.5203C23.1414 5.88533 23.4018 6.33921 23.534 6.83653C24.0228 8.6721 24.0228 12.5 24.0228 12.5C24.0228 12.5 24.0228 16.3278 23.534 18.1634C23.4018 18.6607 23.1414 19.1146 22.7787 19.4796C22.416 19.8447 21.9638 20.108 21.4673 20.2434C19.6397 20.7348 12.3346 20.7348 12.3346 20.7348C12.3346 20.7348 5.02954 20.7348 3.20194 20.2434C2.70548 20.108 2.25327 19.8447 1.89058 19.4796C1.52788 19.1146 1.26742 18.6607 1.13526 18.1634C0.646484 16.3278 0.646484 12.5 0.646484 12.5C0.646484 12.5 0.646484 8.6721 1.13526 6.83653C1.26742 6.33921 1.52788 5.88533 1.89058 5.5203C2.25327 5.15528 2.70548 4.89191 3.20194 4.75657C5.02954 4.26514 12.3346 4.26514 12.3346 4.26514C12.3346 4.26514 19.6397 4.26514 21.4673 4.75657C21.9638 4.89191 22.416 5.15528 22.7787 5.5203ZM16.0536 12.5L9.94389 9.0241V15.9759L16.0536 12.5Z" fill="white"/>
</g>
<defs>
<clipPath id="clip0_225_61492">
<rect width="23.3763" height="23.3763" fill="white" transform="translate(0.623535 0.812012)"/>
</clipPath>
</defs>
</svg>
