<?xml version="1.0" encoding="iso-8859-1"?>
<!-- Uploaded to: SVG Repo, www.svgrepo.com, Generator: SVG Repo Mixer Tools -->
<svg fill="#FFFFFF" height="800px" width="800px" version="1.1" id="Layer_1" xmlns="http://www.w3.org/2000/svg" xmlns:xlink="http://www.w3.org/1999/xlink" 
	 viewBox="0 0 512 512" xml:space="preserve">
<g>
	<g>
		<path d="M452.085,105.668c-33.037,0-59.915,26.878-59.915,59.915c0,13.988,4.831,26.861,12.896,37.068l-63.126,87.492
			c-12.902-4.733-27.585-4.978-41.155,0l-63.126-87.492c8.063-10.206,12.895-23.079,12.895-37.068
			c0-33.037-26.878-59.915-59.915-59.915s-59.915,26.878-59.915,59.915c0,13.988,4.831,26.861,12.896,37.068l-63.126,87.492
			C41.526,275.849,0,304.845,0,346.417c0,33.037,26.878,59.915,59.915,59.915c33.037,0,59.915-26.878,59.915-59.915
			c0-13.989-4.831-26.862-12.896-37.068l63.126-87.492c12.902,4.733,27.585,4.978,41.155,0l63.126,87.492
			c-8.063,10.206-12.895,23.079-12.895,37.068c0,33.037,26.878,59.915,59.915,59.915c33.037,0,59.915-26.878,59.915-59.915
			c0-13.989-4.831-26.862-12.896-37.068l63.126-87.492C470.474,236.151,512,207.155,512,165.583
			C512,132.546,485.122,105.668,452.085,105.668z"/>
	</g>
</g>
</svg>